/vscmnt/brussel_pixiu_data/_data_brussel/112/vsc11236/PredSimResults/SUBJ10opt3D/weighted-LRposFixed/trackIG/worker_01.mot
version=1
nRows=4
nColumns=50
inDegrees=yes
endheader
                time	         pelvis_tilt	         pelvis_list	     pelvis_rotation	           pelvis_tx	           pelvis_ty	           pelvis_tz	       hip_flexion_r	     hip_adduction_r	      hip_rotation_r	        knee_angle_r	       ankle_angle_r	         mtp_angle_r	       hip_flexion_l	     hip_adduction_l	      hip_rotation_l	        knee_angle_l	       ankle_angle_l	         mtp_angle_l	    lumbar_extension	      lumbar_bending	     lumbar_rotation	 ercspn_r/activation	 intobl_r/activation	 extobl_r/activation	    abd_r/activation	    add_r/activation	hamstrings_r/activation	bifemsh_r/activation	glut_max_r/activation	iliopsoas_r/activation	rect_fem_r/activation	  vasti_r/activation	gastroc_r/activation	 soleus_r/activation	tib_ant_r/activation	 ercspn_l/activation	 intobl_l/activation	 extobl_l/activation	    abd_l/activation	    add_l/activation	hamstrings_l/activation	bifemsh_l/activation	glut_max_l/activation	iliopsoas_l/activation	rect_fem_l/activation	  vasti_l/activation	gastroc_l/activation	 soleus_l/activation	tib_ant_l/activation	
          1.13064908	         -3.98931633	         -0.87192577	          6.99340989	          1.31155294	          0.82307790	         -0.01280802	         30.52559393	         -1.61626651	         -5.82978515	         -7.72568278	          3.05034947	          0.26678238	        -16.18180943	         -0.78067984	         -0.44024210	         -6.02041000	          8.39628687	         26.45971710	         -6.49108637	         -0.54329297	         -6.64084419	          0.10805384	          0.15722427	          0.00999999	          0.00999999	          0.19076401	          0.11021673	          0.22140205	          0.05117988	          0.09623847	          0.00999999	          0.00999999	          0.01937184	          0.01388063	          0.28908653	          0.09472518	          0.00999999	          0.00999999	          0.05413145	          0.00999999	          0.01198344	          0.21162128	          0.01310165	          0.38783190	          0.00999999	          0.00999999	          0.30743359	          0.25156623	          0.02370766	
          1.14195558	         -4.02428930	         -0.84734898	          7.08998891	          1.32704383	          0.82176615	         -0.01254415	         30.37273712	         -1.49695355	         -5.46338408	         -9.29695687	          2.70664047	          0.25220424	        -16.23074279	         -0.90608459	         -0.74880721	         -7.78834613	          7.72227801	         28.12831592	         -6.27178421	         -0.08178898	         -6.94951962	          0.09092062	          0.13229449	          0.00999999	          0.01000000	          0.16051611	          0.09662734	          0.18629612	          0.09560940	          0.08097872	          0.00999999	          0.00999999	          0.01630020	          0.01167969	          0.35505551	          0.11035642	          0.00999999	          0.00999999	          0.04554827	          0.01188440	          0.01895561	          0.17806622	          0.01102423	          0.32633654	          0.00999999	          0.00999999	          0.26878545	          0.24079608	          0.01994853	
          1.15326207	         -4.05071004	         -0.83906976	          7.14471314	          1.34276471	          0.82074064	         -0.01215866	         30.07368643	         -1.36926325	         -5.15841281	        -10.61456494	          2.24819212	          0.24347458	        -16.13881139	         -1.05918880	         -1.08438060	         -9.82435273	          6.88973025	         29.74705492	         -6.03674786	          0.39577595	         -7.22837449	          0.10527810	          0.11131763	          0.00999999	          0.05846826	          0.16484820	          0.08312370	          0.15675666	          0.10994267	          0.06813858	          0.00999999	          0.00999999	          0.01371561	          0.00999999	          0.41294249	          0.12540195	          0.00999999	          0.00999999	          0.03832605	          0.00999999	          0.01594998	          0.14983170	          0.00999999	          0.27459201	          0.00999999	          0.00999999	          0.22616632	          0.22386526	          0.01678545	
          1.16456856	         -4.06891655	         -0.82599447	          7.15781530	          1.35852747	          0.82010748	         -0.01165711	         29.73017210	         -1.24339946	         -4.95539135	        -11.86290762	          1.78090960	          0.22995534	        -15.85450852	         -1.21780816	         -1.45019169	        -12.18963630	          5.88863023	         31.22101973	         -5.80768317	          0.86493274	         -7.47275990	          0.10815826	          0.09366690	          0.00999999	          0.09648637	          0.20813889	          0.07038328	          0.13190103	          0.11707260	          0.05733440	          0.00999999	          0.00999999	          0.01154084	          0.00999999	          0.44654911	          0.15258962	          0.00999999	          0.00999999	          0.03224900	          0.00999999	          0.01344163	          0.12607411	          0.00999999	          0.23105219	          0.00999999	          0.00999999	          0.19030497	          0.20589037	          0.01412392	
